<svg xmlns="http://www.w3.org/2000/svg" width="39" height="40" viewBox="0 0 39 40">
    <g fill="#FFF" fill-rule="nonzero">
        <path d="M38.952 18.27C38.182 7.893 29.659.097 19.692.097c-1.059 0-2.166.098-3.273.293C6.789 2.046-.193 10.962.48 20.853a19.385 19.385 0 0 0 6.452 13.3c-.963 1.657-1.685 2.631-3.177 3.996-.675.584-.241 1.705.625 1.705h.29c2.503 0 5.825-.634 8.136-2.047a20.28 20.28 0 0 0 6.886 1.219c1.107 0 2.263-.098 3.418-.293 9.63-1.705 16.515-10.621 15.84-20.463zm-5.633 12.083c-2.649 3.41-6.404 5.75-10.593 6.48a16.693 16.693 0 0 1-9.244-.877 1.682 1.682 0 0 0-.675-.146c-.337 0-.722.097-1.01.292-1.397.877-3.275 1.413-4.96 1.608.626-.73 1.156-1.559 1.782-2.582.481-.78.288-1.803-.386-2.436a17.423 17.423 0 0 1-5.777-11.937C1.878 11.937 8.186 3.8 16.804 2.34a14.177 14.177 0 0 1 2.889-.293c9.051 0 16.659 7.162 17.285 16.37.289 4.24-1.011 8.478-3.66 11.937z"/>
        <ellipse cx="19.741" cy="19.976" rx="2.407" ry="2.436"/>
        <ellipse cx="10.111" cy="19.976" rx="2.407" ry="2.436"/>
        <ellipse cx="29.37" cy="19.976" rx="2.407" ry="2.436"/>
    </g>
</svg>
