<svg xmlns="http://www.w3.org/2000/svg" width="39" height="39" viewBox="0 0 39 39">
    <g fill="#FFF" fill-rule="nonzero" stroke="#20A4C1" stroke-width=".5">
        <path d="M31.063 18.344a1.156 1.156 0 1 0 2.312 0c0-7.014-5.706-12.719-12.719-12.719a1.156 1.156 0 1 0 0 2.313c5.738 0 10.407 4.668 10.407 10.406z"/>
        <path d="M37.25 25.355L28 21.886a1.16 1.16 0 0 0-1.224.265l-2.79 2.79a40.278 40.278 0 0 1-9.928-9.926l2.79-2.791c.321-.32.425-.8.265-1.224l-3.468-9.25c-.17-.451-.6-.75-1.083-.75h-.646a10.69 10.69 0 0 0-7.609 3.151A11.216 11.216 0 0 0 1 12.135a11.3 11.3 0 0 0 1.538 5.689 51.888 51.888 0 0 0 18.638 18.638A11.304 11.304 0 0 0 26.865 38c3.016 0 5.85-1.175 7.984-3.307A10.69 10.69 0 0 0 38 27.084v-.646c0-.482-.299-.914-.75-1.083zm-4.037 7.703a8.919 8.919 0 0 1-6.348 2.63 8.988 8.988 0 0 1-4.524-1.224A49.57 49.57 0 0 1 4.535 16.66a8.988 8.988 0 0 1-1.223-4.524c0-2.398.935-4.653 2.63-6.349a8.389 8.389 0 0 1 5.82-2.473l2.925 7.802-2.942 2.942c-.39.39-.45 1-.144 1.459a42.625 42.625 0 0 0 11.883 11.883c.458.306 1.069.245 1.458-.145l2.943-2.942 7.8 2.926a8.387 8.387 0 0 1-2.472 5.82zM20.656 1a1.156 1.156 0 1 0 0 2.313c8.289 0 15.032 6.743 15.032 15.03a1.156 1.156 0 1 0 2.312 0C38 8.78 30.22 1 20.656 1z"/>
    </g>
</svg>
