<svg xmlns="http://www.w3.org/2000/svg" width="39" height="39" viewBox="0 0 39 39">
    <path fill="#FFF" fill-rule="nonzero" d="M19.5.205C8.878.205.205 8.93.205 19.5c0 10.571 8.673 19.192 19.295 19.192 10.571 0 19.295-8.57 19.295-19.192C38.795 8.826 30.174.205 19.5.205zm0 1.899c4.413 0 8.467 1.693 11.546 4.413l-6.158 6.055c-1.488-1.18-3.335-1.847-5.388-1.847-2.104 0-4.003.718-5.49 1.95L7.902 6.517c3.13-2.77 7.184-4.413 11.597-4.413zm6.876 17.293a6.79 6.79 0 0 1-6.825 6.825 6.79 6.79 0 0 1-6.825-6.825c0-3.797 2.977-6.876 6.774-6.876 3.746 0 6.876 3.079 6.876 6.876zm-24.22.103c0-4.464 1.693-8.518 4.464-11.597l6.106 6.158c-1.231 1.436-1.95 3.335-1.95 5.439a8.75 8.75 0 0 0 1.899 5.44l-6.158 6.106c-2.72-3.13-4.362-7.133-4.362-11.546zM19.5 36.845c-4.516 0-8.57-1.694-11.649-4.516l6.158-6.107c1.488 1.283 3.438 2.002 5.491 2.002a8.497 8.497 0 0 0 5.44-1.95l6.106 6.209c-3.028 2.72-7.082 4.362-11.546 4.362zm12.932-5.748l-6.107-6.209a8.497 8.497 0 0 0 1.95-5.44c0-2.103-.718-4.053-1.95-5.541l6.158-6.056c2.77 3.08 4.464 7.133 4.464 11.598-.05 4.515-1.744 8.57-4.515 11.648z"/>
</svg>
